<svg xmlns="http://www.w3.org/2000/svg" viewBox="0 0 512 512">
  <rect width="512" height="512" rx="112" fill="#11111a"/>
  <!-- calendar body -->
  <rect x="80" y="128" width="352" height="304" rx="28" fill="#1e1e2a"/>
  <rect x="80" y="128" width="352" height="304" rx="28" fill="none" stroke="#2e2e3e" stroke-width="3"/>
  <!-- top bar -->
  <rect x="80" y="128" width="352" height="88" rx="28" fill="#f5c842"/>
  <rect x="80" y="172" width="352" height="44" fill="#f5c842"/>
  <!-- binding pins -->
  <rect x="168" y="96" width="24" height="56" rx="12" fill="#f5c842"/>
  <rect x="320" y="96" width="24" height="56" rx="12" fill="#f5c842"/>
  <!-- month label dots / grid cells -->
  <!-- row 1 -->
  <rect x="112" y="248" width="44" height="36" rx="8" fill="#2e2e3e"/>
  <rect x="168" y="248" width="44" height="36" rx="8" fill="#2e2e3e"/>
  <rect x="224" y="248" width="44" height="36" rx="8" fill="#2e2e3e"/>
  <rect x="280" y="248" width="44" height="36" rx="8" fill="#f5c842"/>
  <rect x="336" y="248" width="44" height="36" rx="8" fill="#2e2e3e"/>
  <!-- row 2 -->
  <rect x="112" y="296" width="44" height="36" rx="8" fill="#2e2e3e"/>
  <rect x="168" y="296" width="44" height="36" rx="8" fill="#2e2e3e"/>
  <rect x="224" y="296" width="44" height="36" rx="8" fill="#2e2e3e"/>
  <rect x="280" y="296" width="44" height="36" rx="8" fill="#2e2e3e"/>
  <rect x="336" y="296" width="44" height="36" rx="8" fill="#2e2e3e"/>
  <!-- row 3 -->
  <rect x="112" y="344" width="44" height="36" rx="8" fill="#2e2e3e"/>
  <rect x="168" y="344" width="44" height="36" rx="8" fill="#2e2e3e"/>
  <rect x="224" y="344" width="44" height="36" rx="8" fill="#2e2e3e"/>
  <!-- event stripe accent -->
  <rect x="150" y="260" width="4" height="14" rx="2" fill="#7c8be0"/>
  <rect x="150" y="308" width="4" height="14" rx="2" fill="#e05c6a"/>
  <rect x="206" y="260" width="4" height="14" rx="2" fill="#4caf7d"/>
</svg>
